<?xml version="1.0" encoding="UTF-8"?>
<svg version="1.0" xmlns="http://www.w3.org/2000/svg" xmlns:xlink="http://www.w3.org/1999/xlink" width="1350" height="900">
	<rect width="1350" height="900" fill="#fff"/>
	<rect x="612" width="738" height="100"/>
	<rect x="612" y="200" width="738" height="100"/>
	<rect y="400" width="1350" height="100"/>
	<rect y="600" width="1350" height="100"/>
	<rect y="800" width="1350" height="100"/>
	<use xlink:href="#ermine" x="-229.5" y="-120"/>
	<use xlink:href="#ermine" x="-76.5" y="-120"/>
	<use xlink:href="#ermine" x="76.5" y="-120"/>
	<use xlink:href="#ermine" x="229.5" y="-120"/>
	<use xlink:href="#ermine" x="-153"/>
	<g id="ermine" transform="scale(1.5)" fill="#000">
		<path d="M 204.04662,179.65913 C 201.92533,177.53785 198.0463,162.57934 198.0463,162.57934 C 198.0463,162.57934 188.22597,167.79355 187.20643,166.49939 C 186.18688,165.20524 190.58728,161.10438 193.96812,157.40271 C 195.65853,155.55187 196.07896,155.81769 196.07678,154.8529 C 196.0746,153.8881 195.6498,151.69268 195.6498,151.69268 C 195.6498,151.69268 181.45359,159.37181 180.38652,157.20597 C 179.31947,155.04012 187.15986,152.12596 193.07489,141.33594 C 198.98991,130.54591 204.04662,114.04587 204.04662,114.04587 C 204.04662,114.04587 209.10334,130.54591 215.01836,141.33594 C 220.93339,152.12596 228.77378,155.04012 227.70672,157.20597 C 226.63966,159.37181 212.44344,151.69268 212.44344,151.69268 C 212.44344,151.69268 212.01864,153.8881 212.01648,154.8529 C 212.01429,155.81769 212.43471,155.55187 214.12513,157.40271 C 217.50597,161.10439 221.90658,165.20524 220.88682,166.49939 C 219.86706,167.79355 210.04611,162.57934 210.04611,162.57934 C 210.04611,162.57934 206.16792,177.53785 204.04662,179.65913 z"/>
		<path d="M 204.04981,114.0482 C 204.04981,114.0482 209.03812,108.73107 214.02644,108.73107 C 219.01475,108.73107 224.00306,114.04821 224.00306,114.04821 C 224.00306,114.04821 219.01475,119.36536 214.02645,119.36536 C 209.03812,119.36536 204.04981,114.0482 204.04981,114.0482 z"/>
		<path d="M 204.04488,94.08783 C 204.04488,94.08783 209.36202,99.07614 209.36202,104.06445 C 209.36202,109.05276 204.04487,114.04108 204.04487,114.04108 C 204.04487,114.04108 198.72773,109.05276 198.72773,104.06446 C 198.72773,99.07614 204.04488,94.08783 204.04488,94.08783 z"/>
		<path d="M 184.08849,114.04724 C 184.08849,114.04724 189.07679,108.73009 194.0651,108.73009 C 199.05342,108.73009 204.04173,114.04724 204.04173,114.04724 C 204.04173,114.04724 199.05342,119.36438 194.06511,119.36438 C 189.07679,119.36438 184.08849,114.04724 184.08849,114.04724 z"/>
	</g>
	<use xlink:href="#ermine" x="153"/>
	<use xlink:href="#ermine" x="-229.5" y="120"/>
	<use xlink:href="#ermine" x="-76.5" y="120"/>
	<use xlink:href="#ermine" x="76.5" y="120"/>
	<use xlink:href="#ermine" x="229.5" y="120"/>
</svg>